<svg xmlns="http://www.w3.org/2000/svg" width="21.21" height="21.209" viewBox="0 0 21.21 21.209"><path d="M-906.3,134.505a6.629,6.629,0,0,1-6.628,6.628h-7.954a6.629,6.629,0,0,1-6.628-6.628v-7.953a6.629,6.629,0,0,1,6.628-6.628h7.954a6.629,6.629,0,0,1,6.628,6.628Zm-6.628-12.593h-7.954a4.644,4.644,0,0,0-4.639,4.64v7.953a4.644,4.644,0,0,0,4.639,4.64h7.954a4.645,4.645,0,0,0,4.64-4.64v-7.953A4.645,4.645,0,0,0-912.93,121.912Zm-3.883,13.919a5.3,5.3,0,0,1-5.3-5.3,5.3,5.3,0,0,1,5.3-5.3,5.3,5.3,0,0,1,5.3,5.3A5.3,5.3,0,0,1-916.813,135.831Zm5.7-10.3a.708.708,0,0,1-.707-.707.707.707,0,0,1,.707-.706.706.706,0,0,1,.706.706A.707.707,0,0,1-911.113,125.535Zm-5.7,1.679a3.318,3.318,0,0,0-3.314,3.314,3.318,3.318,0,0,0,3.314,3.314,3.318,3.318,0,0,0,3.314-3.314A3.318,3.318,0,0,0-916.813,127.214Z" transform="translate(927.512 -119.924)"/></svg>