<svg xmlns="http://www.w3.org/2000/svg" width="230.803" height="37.84" viewBox="0 0 230.803 37.84"><defs><style>.a{fill:#222127;}</style></defs><g transform="translate(-1.2 -0.2)"><g transform="translate(1.2 5.008)"><path class="a" d="M28.8,30.605H22.524v-16.1L15.207,26.215H14.58L7.472,14.507v16.1H1.2V2.8H7.472L15,15.135,22.524,2.8H28.8Z" transform="translate(-1.2 -2.173)"/><path class="a" d="M19.9,17.025A14.068,14.068,0,0,1,34.325,2.6,13.959,13.959,0,0,1,46.242,9.081l-5.436,3.136a7.23,7.23,0,0,0-6.481-3.345,7.792,7.792,0,0,0-8.153,8.153c0,4.808,3.136,8.153,8.153,8.153a7.478,7.478,0,0,0,6.481-3.345l5.436,3.136A13.7,13.7,0,0,1,34.325,31.45,14.068,14.068,0,0,1,19.9,17.025Z" transform="translate(19.194 -2.391)"/><path class="a" d="M65.541,17.761c0,8.362-5.854,13.589-13.589,13.589-8.781,0-15.052-6.481-15.052-14.425A14.321,14.321,0,0,1,51.325,2.5,14.106,14.106,0,0,1,63.451,8.772l-5.436,3.345c-1.045-1.882-3.554-3.345-6.69-3.345a7.962,7.962,0,0,0-8.153,8.362c0,4.808,3.345,8.153,8.781,8.153,3.763,0,6.063-1.672,7.108-4.181H51.743V15.462h13.8Z" transform="translate(37.735 -2.5)"/></g><g transform="translate(134.999 4.59)"><path class="a" d="M73.353,2.3V12.753h-2.3V8.572H67.709v4.181H65.2V2.3h2.509V6.272h3.345V2.3Z" transform="translate(-65.2 -2.3)"/><path class="a" d="M77.008,3.8v7.526h-2.3V10.49a2.424,2.424,0,0,1-2.091.836c-1.463,0-2.718-1.045-2.718-3.136V3.8h2.3V7.981a1.4,1.4,0,0,0,1.254,1.463,1.321,1.321,0,0,0,1.463-1.463V3.8h2.091Z" transform="translate(-60.074 -0.664)"/><path class="a" d="M85.5,6.836v4.6H83.2V7.045c0-.836-.418-1.254-1.045-1.254-.836,0-1.254.627-1.254,1.463v4.181H78.6V7.045c0-.836-.418-1.254-1.045-1.254-.836,0-1.254.627-1.254,1.463v4.181H74V3.909h2.3v.627A2.787,2.787,0,0,1,78.39,3.7a2.2,2.2,0,0,1,1.882,1.045A2.307,2.307,0,0,1,82.362,3.7,2.86,2.86,0,0,1,85.5,6.836Z" transform="translate(-55.603 -0.773)"/><path class="a" d="M88.153,4.018v7.526h-2.3v-.836a2.6,2.6,0,0,1-2.3.836A3.767,3.767,0,0,1,80,7.572a3.577,3.577,0,0,1,5.854-3.136V4.018ZM86.063,7.781A1.874,1.874,0,0,0,84.181,5.9c-1.045,0-1.672.627-1.672,1.882A1.755,1.755,0,0,0,84.39,9.663,1.708,1.708,0,0,0,86.063,7.781Z" transform="translate(-49.059 -0.882)"/><path class="a" d="M92.017,6.836v4.6h-2.3V7.254a1.4,1.4,0,0,0-1.254-1.463A1.321,1.321,0,0,0,87,7.254v4.181H84.7V3.909H87v.627A2.424,2.424,0,0,1,89.09,3.7,2.805,2.805,0,0,1,92.017,6.836Z" transform="translate(-43.933 -0.773)"/><path class="a" d="M71.89,19.153v2.3H65.2V11h6.481v2.3H67.5v1.672h3.763v2.3H67.5v1.882Z" transform="translate(-65.2 7.188)"/><path class="a" d="M76.317,15.436v4.6h-2.3V15.854a1.4,1.4,0,0,0-1.254-1.463A1.321,1.321,0,0,0,71.3,15.854v4.181H69V12.509h2.3v.627A2.424,2.424,0,0,1,73.39,12.3,2.911,2.911,0,0,1,76.317,15.436Z" transform="translate(-61.056 8.606)"/><path class="a" d="M81.153,12.4v7.108c0,2.509-1.882,3.554-3.972,3.554a3.873,3.873,0,0,1-3.554-1.882l1.882-1.045c.209.627.627,1.045,1.672,1.045a1.539,1.539,0,0,0,1.672-1.672v-.627a2.573,2.573,0,0,1-2.091,1.045A3.747,3.747,0,0,1,73,16.163,3.622,3.622,0,0,1,76.763,12.4a2.307,2.307,0,0,1,2.091,1.045v-.836h2.3Zm-2.3,3.554a1.895,1.895,0,1,0-1.882,1.672A1.524,1.524,0,0,0,78.854,15.954Z" transform="translate(-56.693 8.715)"/><path class="a" d="M85.653,12.509v7.526h-2.3v-.627a2.6,2.6,0,0,1-2.3.836A3.767,3.767,0,0,1,77.5,16.272,3.767,3.767,0,0,1,81.054,12.3a3.8,3.8,0,0,1,2.3.836v-.627h2.3Zm-2.3,3.763a1.874,1.874,0,0,0-1.882-1.882,1.755,1.755,0,0,0-1.882,1.882,1.755,1.755,0,0,0,1.882,1.882A1.874,1.874,0,0,0,83.354,16.272Z" transform="translate(-51.786 8.606)"/><path class="a" d="M90.053,12.4v7.108c0,2.509-1.882,3.554-3.972,3.554a3.873,3.873,0,0,1-3.554-1.882l1.882-1.045c.209.627.627,1.045,1.672,1.045a1.539,1.539,0,0,0,1.672-1.672v-.627a2.573,2.573,0,0,1-2.091,1.045A3.747,3.747,0,0,1,81.9,16.163,3.622,3.622,0,0,1,85.663,12.4a2.307,2.307,0,0,1,2.091,1.045v-.836h2.3Zm-2.091,3.554a1.895,1.895,0,1,0-1.882,1.672A1.6,1.6,0,0,0,87.963,15.954Z" transform="translate(-46.987 8.715)"/><path class="a" d="M90.681,18.263a1.9,1.9,0,0,0,1.463-.627l1.882,1.045A4.3,4.3,0,0,1,86.5,16.172,3.844,3.844,0,0,1,90.472,12.2a3.8,3.8,0,0,1,3.763,3.972v.836H88.8C89.009,18.054,89.845,18.263,90.681,18.263Zm1.254-2.718a1.742,1.742,0,0,0-3.345,0Z" transform="translate(-41.97 8.497)"/><path class="a" d="M102.2,15.436v4.6H99.9v-4.39c0-.836-.418-1.254-1.045-1.254-.836,0-1.254.627-1.254,1.463v4.181H95.3v-4.39c0-.836-.418-1.254-1.045-1.254-.836,0-1.254.627-1.254,1.463v4.181H90.7V12.509H93v.627A2.787,2.787,0,0,1,95.09,12.3a2.2,2.2,0,0,1,1.882,1.045A2.307,2.307,0,0,1,99.062,12.3,2.963,2.963,0,0,1,102.2,15.436Z" transform="translate(-37.39 8.606)"/><path class="a" d="M100.881,18.263a1.9,1.9,0,0,0,1.463-.627l1.882,1.045A4.3,4.3,0,0,1,96.7,16.172a3.844,3.844,0,0,1,3.972-3.972,3.8,3.8,0,0,1,3.763,3.972v.836H99A1.889,1.889,0,0,0,100.881,18.263Zm1.463-2.718a1.742,1.742,0,0,0-3.345,0Z" transform="translate(-30.846 8.497)"/><path class="a" d="M108.317,15.436v4.6h-2.3V15.854a1.4,1.4,0,0,0-1.254-1.463,1.321,1.321,0,0,0-1.463,1.463v4.181H101V12.509h2.3v.627a2.424,2.424,0,0,1,2.091-.836A2.805,2.805,0,0,1,108.317,15.436Z" transform="translate(-26.156 8.606)"/><path class="a" d="M108.345,15.581V18.3c0,.627.627.627,1.463.627v2.091c-2.927.209-3.763-.627-3.763-2.718V15.581H105V13.491h1.254V12.027l2.3-.627v2.091h1.463v2.091Z" transform="translate(-21.794 7.624)"/></g><rect class="a" width="0.418" height="37.84" transform="translate(118.065 0.2)"/><g transform="translate(228.658 30.514)"><path class="a" d="M112.509,14.909c.209.209.418.209.627.627.209.209.209.418.209.836a1.257,1.257,0,0,1-.209.836c-.209.209-.209.418-.627.627a1.777,1.777,0,0,1-1.672,0c-.209-.209-.418-.209-.627-.627C110,17,110,16.791,110,16.372a1.58,1.58,0,0,1,.209-.836c.209-.209.209-.418.627-.627.209-.209.418-.209.836-.209C111.882,14.7,112.3,14.909,112.509,14.909Zm-.209,2.509c.209-.209.418-.209.418-.418a.768.768,0,0,0,.209-.627.768.768,0,0,0-.209-.627c-.209-.209-.209-.418-.418-.418a1.045,1.045,0,0,0-1.254,0c-.209.209-.418.209-.418.418a.768.768,0,0,0-.209.627.768.768,0,0,0,.209.627c.209.209.209.418.418.418a.768.768,0,0,0,.627.209C111.882,17.627,112.091,17.418,112.3,17.418Zm0-1.254-.209.209.418.627H112.3l-.418-.627h-.418V17h-.209V15.327h.627c.209,0,.418,0,.418.209s.209.209.209.418S112.509,16.163,112.3,16.163Zm-.209,0,.209-.209c0-.209,0-.209-.209-.209h-.836v.836h.418C111.882,16.372,112.091,16.372,112.091,16.163Z" transform="translate(-110 -14.7)"/></g></g></svg>