<svg xmlns="http://www.w3.org/2000/svg" width="22.677" height="18.421" viewBox="0 0 22.677 18.421"><path d="M-908.653,170.907l.014.6a13.142,13.142,0,0,1-13.232,13.23A13.167,13.167,0,0,1-929,182.65a9.91,9.91,0,0,0,1.107.062,9.348,9.348,0,0,0,5.778-1.986,4.668,4.668,0,0,1-4.345-3.231,4.689,4.689,0,0,0,.879.081,4.837,4.837,0,0,0,1.224-.157,4.665,4.665,0,0,1-3.729-4.567v-.057a4.575,4.575,0,0,0,2.1.581,4.644,4.644,0,0,1-2.069-3.867,4.616,4.616,0,0,1,.631-2.34,13.211,13.211,0,0,0,9.591,4.859,4.843,4.843,0,0,1-.119-1.06,4.653,4.653,0,0,1,4.65-4.65,4.643,4.643,0,0,1,3.391,1.467,9.265,9.265,0,0,0,2.962-1.128A4.681,4.681,0,0,1-909,169.232a9.261,9.261,0,0,0,2.672-.735A9.383,9.383,0,0,1-908.653,170.907Z" transform="translate(929.004 -166.318)"/></svg>